<?xml version="1.0" standalone="no"?><!DOCTYPE svg PUBLIC "-//W3C//DTD SVG 1.1//EN" "http://www.w3.org/Graphics/SVG/1.1/DTD/svg11.dtd"><svg t="1556351087501" class="icon" style="" viewBox="0 0 1024 1024" version="1.1" xmlns="http://www.w3.org/2000/svg" p-id="7668" xmlns:xlink="http://www.w3.org/1999/xlink" width="32" height="32"><defs><style type="text/css"></style></defs><path d="M0 0h1024v1024H0z" fill="#F7DF1E" p-id="7669"></path><path d="M688 800c20.48 33.6 47.36 58.56 95.04 58.56 40 0 65.28-19.84 65.28-47.36 0-32.96-26.24-44.8-70.08-64l-24-10.24c-69.44-29.44-115.52-66.56-115.52-144.96 0-72.32 55.04-127.04 140.8-127.04 61.12 0 105.28 21.44 136.96 77.12l-74.88 48c-16.64-29.44-34.24-41.28-62.08-41.28-28.16 0-46.08 17.92-46.08 41.28 0 28.8 17.92 40.64 59.2 58.56l24 10.24c81.6 35.2 128 70.72 128 151.04 0 86.72-68.16 134.08-159.36 134.08-89.28 0-147.2-42.56-175.36-98.56L688 800z m-340.16 8.32c15.04 26.88 28.8 49.6 62.08 49.6 31.68 0 51.52-12.48 51.52-60.48V470.08h96.32v328.64c0 99.52-58.56 144.96-143.68 144.96-77.12 0-121.6-40-144.32-88l78.08-47.36z" p-id="7670"></path></svg>