<?xml version="1.0" standalone="no"?><!DOCTYPE svg PUBLIC "-//W3C//DTD SVG 1.1//EN" "http://www.w3.org/Graphics/SVG/1.1/DTD/svg11.dtd"><svg t="1556352196703" class="icon" style="" viewBox="0 0 1024 1024" version="1.1" xmlns="http://www.w3.org/2000/svg" p-id="11353" xmlns:xlink="http://www.w3.org/1999/xlink" width="32" height="32"><defs><style type="text/css"></style></defs><path d="M513.088814 1022.657762a495.413769 495.413769 0 0 0 195.071968-40.778479c60.081143-25.694276 115.048998-62.76562 161.707758-108.529555a501.102303 501.102303 0 0 0 147.646215-294.461519c6.391611-49.471069 5.75245-100.028712-1.917483-149.244117-6.391611-40.90631-17.896511-80.853879-33.875539-118.883965a477.900755 477.900755 0 0 0-36.432183-69.029399C895.498901 163.369577 823.273696 100.348293 740.182753 58.291492a550.892953 550.892953 0 0 0-92.67836-37.071343h-0.191748c5.113289 2.684477 10.226578 5.624618 14.700705 8.564758 5.113289 3.195806 10.226578 6.263779 14.95637 9.587417 24.288122 16.42644 46.65876 35.281693 66.472755 56.757506 45.380438 48.767992 76.699332 108.657387 94.595843 172.317832 12.144061 41.928968 18.535672 85.264091 21.092316 128.727046 1.917483 31.702391 1.917483 63.59653-1.917483 95.107172-6.391611 54.136945-23.648961 107.059484-52.411211 153.398664a318.302228 318.302228 0 0 1-81.173459 88.843393c-53.050371 39.627988-122.718931 63.276949-189.191686 47.553586-10.865739-2.556644-21.731477-6.263779-31.958055-10.993571a204.08414 204.08414 0 0 1-33.236378-19.174833 259.371575 259.371575 0 0 1-53.050371-47.170089 278.226827 278.226827 0 0 1-44.741277-74.526184 313.636352 313.636352 0 0 1-21.092316-108.337807c-1.278322-54.328694 9.587417-108.913052 36.432182-156.59447 17.896511-31.702391 42.184633-59.569815 70.946883-81.812621 9.587417-7.542101 19.813994-14.189376 30.040571-20.453155l0.639161-0.255664c-19.813994-4.474128-40.90631-6.391611-61.359465-5.113289-17.896511 1.278322-35.153861 4.474128-52.411211 10.226577a242.242057 242.242057 0 0 0-74.781848 40.26715c-8.948255 7.669933-17.896511 15.339866-26.205606 23.648961-47.937083 49.215405-75.42101 114.409837-86.286748 181.521752-6.391611 41.545472-6.391611 83.730104-3.834967 125.914737 4.474128 59.441982 16.618189 118.883965 40.26715 173.212659 14.700705 33.875538 33.875538 65.194432 57.524499 92.678359 36.432183 42.184633 82.451782 74.781849 133.58467 95.235004 28.76225 11.5049 59.441982 19.813994 90.121715 23.0098 3.195806 0.639161 6.391611 0.639161 8.948255 0.639161z m-125.147744-16.937769c-7.030772-3.004057-13.422383-6.391611-19.174833-9.715249a359.208539 359.208539 0 0 1-86.925909-65.514013c-46.65876-48.448411-77.977654-109.424381-95.874166-174.043568-12.144061-44.102116-18.535672-89.610386-21.092316-135.246489-1.917483-30.040572-1.278322-59.441982 1.917483-88.843393 5.75245-53.689532 21.092316-106.739904 47.937083-152.759503 19.174833-33.875538 45.380438-63.91611 76.060171-87.565071 21.092316-15.979028 44.741277-29.401411 69.66856-38.349666a227.860933 227.860933 0 0 1 150.202859-1.917483c1.278322 0 1.278322 0 1.917483 1.278322 0.639161 0.639161 1.917483 0.639161 2.556644 1.278322 1.917483 0.639161 4.474128 1.917483 7.030773 3.195806 10.226578 5.113289 20.453155 11.5049 30.040571 17.89651 38.349666 26.844766 69.66856 63.91611 89.482554 106.739904 17.896511 38.988827 26.205605 82.451782 26.844767 125.275576 0.639161 46.019599-7.669933 92.039199-27.483928 134.223831-23.648961 50.493727-63.91611 93.317521-112.492353 120.801448 3.834967 1.278322 7.669933 1.917483 11.504899 3.195806 9.587417 1.917483 19.174833 3.195806 29.401411 3.195805 62.637788 1.917483 123.358093-28.123088 168.09937-70.307721 8.309094-7.669933 15.979028-15.979028 23.009799-24.927283 9.587417-11.5049 18.535672-23.0098 26.205605-35.15386 10.226578-15.979028 18.535672-31.958055 26.205605-49.215405 9.587417-23.0098 17.25735-46.65876 21.731478-70.946882 8.309094-42.823794 8.948255-86.286749 6.391611-129.110543-5.75245-86.286749-28.76225-172.573497-78.616815-244.15954-7.669933-10.865739-15.339866-21.092316-23.648961-30.679733-14.061544-15.979028-29.401411-30.679733-45.380438-44.102116-17.896511-14.700705-37.710505-28.123088-58.163661-38.988827A417.69178 417.69178 0 0 0 563.135128 5.75245L550.351906 3.195806a375.826727 375.826727 0 0 0-27.036515-2.556645A364.641408 364.641408 0 0 0 480.044185 1.278322c-30.040572 1.917483-60.272892 6.775108-90.121715 14.317209-143.172087 36.943512-268.447662 136.780476-335.112166 269.086823a505.640347 505.640347 0 0 0-45.252606 133.584671c-10.226578 53.050371-11.5049 107.634729-4.474127 161.068597 5.113289 43.462955 15.979028 86.286749 33.236377 127.001311 9.587417 24.288122 21.731477 47.937083 35.153861 70.307721 46.65876 76.060171 114.409837 138.058798 192.387491 180.882591 29.401411 16.618189 60.081143 29.401411 92.039199 40.26715 9.587417 3.195806 19.174833 6.391611 29.40141 8.948255z" p-id="11354" fill="#8bc521"></path></svg>